<?xml version="1.0" encoding="UTF-8" standalone="no"?>
<svg
   width="257.78"
   height="85.925003"
   viewBox="0 0 257.78 85.925003"
   version="1.1"
   id="svg57"
   xmlns="http://www.w3.org/2000/svg"
   xmlns:svg="http://www.w3.org/2000/svg">
  <defs
     id="defs15">
    <linearGradient
       id="linear-gradient"
       x1="0.5"
       x2="0.5"
       y2="1"
       gradientUnits="objectBoundingBox">
      <stop
         offset="0"
         stop-color="#591da9"
         id="stop2" />
      <stop
         offset="1"
         stop-color="#051960"
         id="stop4" />
    </linearGradient>
    <radialGradient
       id="radial-gradient"
       cx="0.5"
       cy="0.5"
       r="1.234"
       gradientTransform="matrix(1,0,0,0.468,0,0.266)"
       gradientUnits="objectBoundingBox">
      <stop
         offset="0"
         stop-color="#450b91"
         id="stop7" />
      <stop
         offset="1"
         stop-color="#051960"
         id="stop9" />
    </radialGradient>
    <clipPath
       id="clip-Splash">
      <rect
         width="414"
         height="896"
         id="rect12"
         x="0"
         y="0" />
    </clipPath>
  </defs>
  <g
     id="Splash"
     clip-path="url(#clip-Splash)"
     transform="translate(-75.907,-399.915)">
    <rect
       id="Rectangle"
       width="147"
       height="6"
       rx="3"
       transform="translate(131,875)"
       fill="#ffffff"
       x="0"
       y="0"
       ry="3" />
    <g
       id="Layer_2"
       data-name="Layer 2"
       transform="translate(75.907,399.915)">
      <g
         id="Layer_1"
         data-name="Layer 1">
        <path
           id="Trazado_1"
           data-name="Trazado 1"
           d="M 53.918,53.92 H 38.089 v 4.52 H 53.918 V 76.532 H 29.045 L 20,67.487 V 20 h 18.089 v 15.828 h 15.829 z"
           transform="translate(-15.478,-15.478)"
           fill="rgba(255,255,255,0.05)"
           style="fill:#3b2eb5;fill-opacity:1" />
        <path
           id="Trazado_2"
           data-name="Trazado 2"
           d="M 253.313,130.7 H 199.045 L 190,121.659 V 90 h 18.089 v 22.612 h 4.522 V 90 H 230.7 v 22.612 h 4.522 V 90 h 18.089 z"
           transform="translate(-147.038,-69.649)"
           fill="rgba(255,255,255,0.05)"
           style="fill:#3b2eb5;fill-opacity:1" />
        <rect
           id="Rect치ngulo_1"
           data-name="Rect치ngulo 1"
           width="17.452999"
           height="40.361"
           transform="translate(111.265,20.726)"
           fill="rgba(255,255,255,0.05)"
           style="fill:#3b2eb5;fill-opacity:1"
           x="0"
           y="0" />
        <rect
           id="Rect치ngulo_2"
           data-name="Rect치ngulo 2"
           width="17.452999"
           height="11.999"
           transform="translate(111.265,4.363)"
           fill="rgba(255,255,255,0.05)"
           style="fill:#3b2eb5;fill-opacity:1"
           x="0"
           y="0" />
        <path
           id="Trazado_3"
           data-name="Trazado 3"
           d="m 623.918,53.92 h -15.829 v 4.52 h 15.828 V 76.532 H 599.045 L 590,67.487 V 20 h 18.089 v 15.828 h 15.828 z"
           transform="translate(-456.591,-15.478)"
           fill="rgba(255,255,255,0.05)"
           style="fill:#3b2eb5;fill-opacity:1" />
        <path
           id="Trazado_4"
           data-name="Trazado 4"
           d="m 796.179,108.092 h -18.09 v 4.52 h 18.089 V 130.7 H 769.045 L 760,121.659 V 99.047 L 769.045,90 h 27.134 z"
           transform="translate(-588.151,-69.649)"
           fill="rgba(255,255,255,0.05)"
           style="fill:#3b2eb5;fill-opacity:1" />
        <path
           id="Trazado_5"
           data-name="Trazado 5"
           d="M 980.7,76.532 H 962.612 V 53.92 H 958.09 V 76.532 H 940 V 20 h 18.089 v 15.828 h 13.567 l 9.045,9.047 z"
           transform="translate(-727.45,-15.478)"
           fill="rgba(255,255,255,0.05)"
           style="fill:#3b2eb5;fill-opacity:1" />
        <path
           id="Trazado_6"
           data-name="Trazado 6"
           d="M 246.468,15.828 H 235.162 V 0 H 210.337 L 198.92,15.828 h -20.287 l -6.784,6.784 V 15.828 H 156.021 V 0 H 106.275 V 15.828 H 36.292 L 24.873,0 H 0 V 54.268 L 31.656,85.925 H 63.313 V 76.88 l 9.045,9.045 H 133.41 V 76.88 l 9.045,9.045 h 29.4 V 76.88 l 9.045,9.045 h 56.529 L 257.78,65.574 V 27.134 Z M 38.44,38.44 H 22.612 v 4.522 H 38.44 v 18.09 H 13.567 L 4.522,52.007 V 4.522 h 18.09 V 20.351 H 38.44 Z m 67.835,22.612 H 52.007 L 42.962,52.007 V 20.351 h 18.09 v 22.611 h 4.522 V 20.351 h 18.089 v 22.611 h 4.522 V 20.351 h 18.089 z m 22.612,0 H 110.8 v -40.7 h 18.089 z m 0,-45.223 H 110.8 V 4.522 h 18.089 z m 38.44,22.612 H 151.5 v 4.522 h 15.828 v 18.089 h -24.874 l -9.045,-9.045 V 4.522 H 151.5 v 15.829 h 15.828 z m 40.7,0 h -18.088 v 4.522 h 18.089 v 18.089 h -27.134 l -9.045,-9.045 V 29.4 l 9.045,-9.045 h 27.134 z M 253.25,61.053 H 235.162 V 38.44 H 230.64 V 61.052 H 212.55 V 4.522 h 18.09 v 15.829 h 13.567 l 9.045,9.045 z"
           fill="#ffffff" />
      </g>
    </g>
  </g>
</svg>
