<?xml version="1.0" encoding="UTF-8" standalone="no"?>
<svg
   id="pelota-deportiva"
   width="20"
   height="20"
   viewBox="0 0 19.999999 20"
   version="1.1"
   sodipodi:docname="category_sport.svg"
   inkscape:version="1.1 (c4e8f9ed74, 2021-05-24)"
   xmlns:inkscape="http://www.inkscape.org/namespaces/inkscape"
   xmlns:sodipodi="http://sodipodi.sourceforge.net/DTD/sodipodi-0.dtd"
   xmlns:xlink="http://www.w3.org/1999/xlink"
   xmlns="http://www.w3.org/2000/svg"
   xmlns:svg="http://www.w3.org/2000/svg">
  <sodipodi:namedview
     id="namedview14"
     pagecolor="#ffffff"
     bordercolor="#999999"
     borderopacity="1"
     inkscape:pageshadow="0"
     inkscape:pageopacity="0"
     inkscape:pagecheckerboard="0"
     showgrid="false"
     fit-margin-top="0"
     fit-margin-left="0"
     fit-margin-right="0"
     fit-margin-bottom="0"
     inkscape:zoom="24.442127"
     inkscape:cx="6.9961179"
     inkscape:cy="9.0417664"
     inkscape:window-width="1366"
     inkscape:window-height="736"
     inkscape:window-x="1366"
     inkscape:window-y="32"
     inkscape:window-maximized="1"
     inkscape:current-layer="pelota-deportiva" />
  <defs
     id="defs7">
    <linearGradient
       id="linear-gradient"
       x1="0.5"
       x2="0.5"
       y2="1"
       gradientUnits="objectBoundingBox">
      <stop
         offset="0"
         stop-color="#ffd93a"
         id="stop2" />
      <stop
         offset="1"
         stop-color="#ffad81"
         id="stop4" />
    </linearGradient>
    <linearGradient
       inkscape:collect="always"
       xlink:href="#linear-gradient"
       id="linearGradient831"
       gradientUnits="userSpaceOnUse"
       x1="4.1482525"
       x2="4.1482525"
       y2="38.51453"
       gradientTransform="scale(0.57855685,1.7284386)"
       y1="30.218025" />
    <linearGradient
       inkscape:collect="always"
       xlink:href="#linear-gradient"
       id="linearGradient833"
       gradientUnits="userSpaceOnUse"
       x1="67.078087"
       x2="67.078087"
       y2="19.491215"
       gradientTransform="scale(0.81233684,1.2310164)"
       y1="0.016533744" />
    <linearGradient
       inkscape:collect="always"
       xlink:href="#linear-gradient"
       id="linearGradient835"
       gradientUnits="userSpaceOnUse"
       x1="352.88147"
       x2="352.88147"
       y2="34.647587"
       gradientTransform="scale(0.58824428,1.699974)"
       y1="26.04981" />
  </defs>
  <g
     id="Grupo_16545"
     data-name="Grupo 16545"
     transform="matrix(0.83408759,0,0,0.83423709,0,-0.00112898)">
    <path
       id="Trazado_78411"
       data-name="Trazado 78411"
       d="M 0,59.4 A 11.911,11.911 0 0 1 2.4,52.23 11.913,11.913 0 0 1 4.8,59.4 11.912,11.912 0 0 1 2.4,66.57 11.909,11.909 0 0 1 0,59.4 Z"
       transform="translate(0,-47.413)"
       fill="url(#linear-gradient)"
       style="fill:url(#linearGradient831)" />
    <path
       id="Trazado_78412"
       data-name="Trazado 78412"
       d="m 54.27,23.994 a 11.931,11.931 0 0 1 -7.69,-2.8 14.651,14.651 0 0 0 0,-18.371 11.931,11.931 0 0 1 14.654,-0.554 14.628,14.628 0 0 0 1.166,18.526 11.935,11.935 0 0 1 -8.13,3.199 z"
       transform="translate(-42.281,-0.019)"
       fill="url(#linear-gradient)"
       style="fill:url(#linearGradient833)" />
    <path
       id="Trazado_78413"
       data-name="Trazado 78413"
       d="M 208.048,58.9 A 11.939,11.939 0 0 1 207.113,44.284 11.939,11.939 0 0 1 208.048,58.9 Z"
       transform="translate(-186.131,-40.201)"
       fill="url(#linear-gradient)"
       style="fill:url(#linearGradient835)" />
  </g>
</svg>
