<?xml version="1.0" encoding="UTF-8" standalone="no"?>
<svg
   id="Grupo_16543"
   data-name="Grupo 16543"
   width="20"
   height="20"
   viewBox="0 0 20 20"
   version="1.1"
   sodipodi:docname="category_action.svg"
   inkscape:version="1.1 (c4e8f9ed74, 2021-05-24)"
   xmlns:inkscape="http://www.inkscape.org/namespaces/inkscape"
   xmlns:sodipodi="http://sodipodi.sourceforge.net/DTD/sodipodi-0.dtd"
   xmlns:xlink="http://www.w3.org/1999/xlink"
   xmlns="http://www.w3.org/2000/svg"
   xmlns:svg="http://www.w3.org/2000/svg">
  <sodipodi:namedview
     id="namedview20"
     pagecolor="#ffffff"
     bordercolor="#999999"
     borderopacity="1"
     inkscape:pageshadow="0"
     inkscape:pageopacity="0"
     inkscape:pagecheckerboard="0"
     showgrid="false"
     inkscape:zoom="11.847958"
     inkscape:cx="14.601672"
     inkscape:cy="10.297133"
     inkscape:window-width="1366"
     inkscape:window-height="736"
     inkscape:window-x="1366"
     inkscape:window-y="32"
     inkscape:window-maximized="1"
     inkscape:current-layer="Grupo_16543" />
  <defs
     id="defs12">
    <radialGradient
       id="radial-gradient"
       cx="490.25446"
       cy="1149.9084"
       r="7.7213874"
       gradientUnits="userSpaceOnUse"
       gradientTransform="scale(0.93315337,1.0716352)"
       fx="490.25446"
       fy="1149.9084">
      <stop
         offset="0"
         stop-color="#fca091"
         id="stop2" />
      <stop
         offset="1"
         stop-color="#fc7c68"
         id="stop4" />
    </radialGradient>
    <radialGradient
       id="radial-gradient-2"
       cx="0.236"
       cy="0.60000002"
       r="0.5"
       gradientUnits="objectBoundingBox">
      <stop
         offset="0"
         stop-color="#fca091"
         id="stop7" />
      <stop
         offset="1"
         stop-color="#fc6868"
         id="stop9" />
    </radialGradient>
    <radialGradient
       inkscape:collect="always"
       xlink:href="#radial-gradient-2"
       id="radialGradient844"
       gradientUnits="userSpaceOnUse"
       cx="621.24005"
       cy="1136.97"
       r="4.6701093"
       gradientTransform="scale(1.0021681,0.99783659)"
       fx="621.24005"
       fy="1136.97" />
    <radialGradient
       inkscape:collect="always"
       xlink:href="#radial-gradient-2"
       id="radialGradient846"
       gradientUnits="userSpaceOnUse"
       cx="371.03552"
       cy="1134.9783"
       r="4.66295"
       gradientTransform="scale(1.0004043,0.99959582)"
       fx="371.03552"
       fy="1134.9783" />
    <radialGradient
       inkscape:collect="always"
       xlink:href="#radial-gradient-2"
       id="radialGradient848"
       gradientUnits="userSpaceOnUse"
       cx="390.56268"
       cy="1368.9124"
       r="3.6596429"
       gradientTransform="scale(0.9742707,1.0264088)"
       fx="390.56268"
       fy="1368.9124" />
    <radialGradient
       inkscape:collect="always"
       xlink:href="#radial-gradient-2"
       id="radialGradient850"
       gradientUnits="userSpaceOnUse"
       cx="663.44763"
       cy="1368.9985"
       r="3.6524024"
       gradientTransform="scale(0.97422536,1.0264565)"
       fx="663.44763"
       fy="1368.9985" />
  </defs>
  <g
     id="g842"
     transform="matrix(0.79030643,0,0,0.79029587,-0.00137961,0.22567369)">
    <path
       id="Trazado_78406"
       data-name="Trazado 78406"
       d="m 468.483,1226.942 a 20.994,20.994 0 0 1 -0.216,3.258 9.705,9.705 0 0 1 -2.057,5.23 10.867,10.867 0 0 1 -2.6,2.2 c -0.622,0.4 -1.266,0.763 -1.9,1.143 a 0.751,0.751 0 0 1 -0.812,0.019 31.552,31.552 0 0 1 -2.939,-1.868 8.781,8.781 0 0 1 -3.457,-5.635 30.813,30.813 0 0 1 -0.413,-5.7 0.52,0.52 0 0 1 0.538,-0.606 18.32,18.32 0 0 0 2.464,-0.562 11.08,11.08 0 0 0 3.848,-1.942 0.594,0.594 0 0 1 0.784,0.046 10.884,10.884 0 0 0 2.624,1.518 17.054,17.054 0 0 0 2.954,0.819 c 0.258,0.05 0.514,0.109 0.775,0.147 a 0.465,0.465 0 0 1 0.413,0.517 c -0.009,0.418 -0.006,0.841 -0.006,1.416 z"
       transform="translate(-448.687,-1216.422)"
       fill="url(#radial-gradient)"
       style="fill:url(#radial-gradient)" />
    <path
       id="Trazado_78407"
       data-name="Trazado 78407"
       d="m 621.937,1130.084 a 0.654,0.654 0 0 1 0.44,0.237 c 0.5,0.5 1.009,0.991 1.5,1.5 0.178,0.185 0.289,0.165 0.46,-0.01 0.86,-0.873 1.729,-1.736 2.6,-2.6 0.4,-0.394 0.581,-0.392 0.979,0 q 0.775,0.771 1.547,1.546 c 0.369,0.371 0.368,0.583 -0.008,0.96 -0.865,0.867 -1.73,1.736 -2.6,2.595 -0.172,0.169 -0.2,0.278 -0.008,0.458 0.5,0.473 0.979,0.962 1.457,1.455 0.379,0.39 0.371,0.576 -0.01,0.959 -0.253,0.255 -0.506,0.51 -0.763,0.761 -0.4,0.39 -0.577,0.39 -0.981,-0.01 -0.488,-0.483 -0.975,-0.967 -1.456,-1.457 -0.134,-0.137 -0.25,-0.2 -0.383,-0.017 a 0.88,0.88 0 0 1 -0.993,0.306 17.136,17.136 0 0 1 -3.09,-0.786 c -0.3,-0.107 -0.326,-0.186 -0.1,-0.408 0.5,-0.5 1.015,-0.985 1.52,-1.48 0.33,-0.324 0.328,-0.327 0.01,-0.645 -0.471,-0.471 -0.943,-0.939 -1.412,-1.412 -0.305,-0.308 -0.306,-0.527 0,-0.84 0.306,-0.313 0.61,-0.614 0.92,-0.917 a 0.6,0.6 0 0 1 0.371,-0.197 z"
       transform="translate(-604.43,-1128.919)"
       fill="url(#radial-gradient-2)"
       style="fill:url(#radialGradient844)" />
    <path
       id="Trazado_78408"
       data-name="Trazado 78408"
       d="m 374.51,1136.842 c -0.215,-0.011 -0.327,-0.2 -0.458,-0.341 -0.159,-0.173 -0.268,-0.176 -0.435,0 -0.476,0.5 -0.966,0.977 -1.455,1.459 -0.389,0.383 -0.571,0.384 -0.959,0.01 -0.288,-0.28 -0.573,-0.563 -0.851,-0.852 a 0.5,0.5 0 0 1 0.008,-0.823 c 0.485,-0.486 0.96,-0.983 1.464,-1.449 0.241,-0.224 0.219,-0.356 -0.007,-0.575 -0.857,-0.831 -1.7,-1.682 -2.539,-2.527 -0.391,-0.391 -0.392,-0.6 -0.005,-0.983 q 0.794,-0.8 1.593,-1.59 c 0.325,-0.321 0.541,-0.321 0.866,0 q 1.294,1.284 2.581,2.575 c 0.3,0.3 0.305,0.3 0.619,-0.01 0.466,-0.461 0.926,-0.926 1.391,-1.387 0.347,-0.344 0.537,-0.349 0.885,-0.013 q 0.456,0.441 0.9,0.9 a 0.483,0.483 0 0 1 -0.005,0.794 c -0.49,0.5 -0.978,0.995 -1.482,1.476 -0.207,0.2 -0.221,0.336 -0.006,0.541 0.52,0.5 1.022,1.01 1.527,1.521 0.206,0.209 0.181,0.3 -0.086,0.4 a 17.048,17.048 0 0 1 -3.462,0.862 z"
       transform="translate(-368.982,-1128.924)"
       fill="url(#radial-gradient-2)"
       style="fill:url(#radialGradient846)" />
    <path
       id="Trazado_78409"
       data-name="Trazado 78409"
       d="m 378.841,1407.485 a 2.363,2.363 0 0 1 0.079,-0.247 c 0.387,-0.924 0.777,-1.847 1.163,-2.771 a 2,2 0 0 1 0.463,-0.672 q 1.577,-1.534 3.148,-3.075 c 0.24,-0.235 0.3,-0.226 0.449,0.083 a 9.272,9.272 0 0 0 1.72,2.524 c 0.172,0.173 0.093,0.288 -0.036,0.423 q -0.961,1.008 -1.918,2.02 c -0.188,0.2 -0.377,0.4 -0.555,0.607 a 1.835,1.835 0 0 1 -0.807,0.533 c -1,0.36 -2,0.741 -3,1.1 a 0.485,0.485 0 0 1 -0.706,-0.525 z"
       transform="translate(-378.215,-1383.33)"
       fill="url(#radial-gradient-2)"
       style="fill:url(#radialGradient848)" />
    <path
       id="Trazado_78410"
       data-name="Trazado 78410"
       d="m 651.784,1407.706 a 0.488,0.488 0 0 1 -0.687,0.468 c -0.708,-0.243 -1.409,-0.508 -2.112,-0.764 a 0.846,0.846 0 0 0 -0.117,-0.048 3.884,3.884 0 0 1 -2.161,-1.4 c -0.607,-0.689 -1.248,-1.349 -1.889,-2.007 -0.2,-0.2 -0.2,-0.337 0,-0.545 a 9.084,9.084 0 0 0 1.638,-2.432 c 0.157,-0.327 0.2,-0.334 0.462,-0.082 1.047,1.013 2.089,2.033 3.146,3.037 a 3.519,3.519 0 0 1 0.687,1.235 c 0.335,0.752 0.636,1.519 0.949,2.28 0.04,0.1 0.066,0.202 0.084,0.258 z"
       transform="translate(-627.184,-1383.483)"
       fill="url(#radial-gradient-2)"
       style="fill:url(#radialGradient850)" />
  </g>
</svg>
