<svg xmlns="http://www.w3.org/2000/svg" width="7.551" height="13.643" viewBox="0 0 7.551 13.643">
  <g id="Grupo_16532" data-name="Grupo 16532" transform="translate(-1167 -88.089)">
    <path id="Trazado_78396" data-name="Trazado 78396" d="M16.218,151.736a.49.49,0,0,1-.334-.13l-3.279-3.032a.477.477,0,0,1-.154-.351V141.6a.478.478,0,0,1,.157-.353l3.279-2.984a.492.492,0,0,1,.661,0l3.279,2.984a.478.478,0,0,1,.157.353v6.627a.477.477,0,0,1-.154.351l-3.279,3.032A.49.49,0,0,1,16.218,151.736Z" transform="translate(1154.567 -50.004)" fill="#fefac8"/>
    <g id="Grupo_16530" data-name="Grupo 16530" transform="translate(1167.018 88.089)">
      <path id="Trazado_78401" data-name="Trazado 78401" d="M115.962,398.934v2.458a.49.49,0,0,0,.333-.13l3.279-3.032a.478.478,0,0,0,.154-.351l-1.95-.625Z" transform="translate(-112.195 -387.787)" fill="#efba50"/>
      <path id="Trazado_78402" data-name="Trazado 78402" d="M12.45,140.554a.478.478,0,0,1,.157-.353l3.279-2.984a.49.49,0,0,1,.331-.128v2.443L14.4,141.185Z" transform="translate(-12.45 -137.089)" fill="#efba50"/>
    </g>
    <path id="Trazado_78397" data-name="Trazado 78397" d="M16.218,398.934v2.458a.49.49,0,0,1-.334-.13l-3.279-3.032a.477.477,0,0,1-.154-.351l1.95-.625Z" transform="translate(1154.567 -299.698)" fill="#f9d984"/>
    <g id="Grupo_16531" data-name="Grupo 16531" transform="translate(1167.018 91.554)">
      <path id="Trazado_78404" data-name="Trazado 78404" d="M14.4,238.3V232.93l-1.95-.625v6.627Z" transform="translate(-12.45 -232.305)" fill="#e5ae36"/>
      <path id="Trazado_78405" data-name="Trazado 78405" d="M165.881,232.937v5.371l1.95.625v-6.627Z" transform="translate(-160.298 -232.305)" fill="#e5ae36"/>
    </g>
    <path id="Trazado_78398" data-name="Trazado 78398" d="M13.178,147.482v-6.641a.479.479,0,0,1,.157-.354l2.394-2.178v-.939a.491.491,0,0,0-.331.128l-3.286,2.99a.479.479,0,0,0-.157.354v6.641a.478.478,0,0,0,.154.351l3.286,3.038a.491.491,0,0,0,.334.13v-.952l-2.4-2.216A.478.478,0,0,1,13.178,147.482Z" transform="translate(1155.045 -49.271)" opacity="0.1"/>
    <path id="Trazado_78399" data-name="Trazado 78399" d="M119.45,140.841a.479.479,0,0,0-.157-.354l-3.286-2.99a.491.491,0,0,0-.331-.128v2.448l1.82,1.657Z" transform="translate(1055.098 -49.27)" fill="#f9d984"/>
  </g>
</svg>
