<?xml version="1.0" encoding="UTF-8" standalone="no"?>
<svg
   width="20"
   height="20"
   viewBox="0 0 20 20.000001"
   version="1.1"
   id="svg13"
   sodipodi:docname="coin.svg"
   inkscape:version="1.1 (c4e8f9ed74, 2021-05-24)"
   xmlns:inkscape="http://www.inkscape.org/namespaces/inkscape"
   xmlns:sodipodi="http://sodipodi.sourceforge.net/DTD/sodipodi-0.dtd"
   xmlns="http://www.w3.org/2000/svg"
   xmlns:svg="http://www.w3.org/2000/svg">
  <defs
     id="defs17" />
  <sodipodi:namedview
     id="namedview15"
     pagecolor="#ffffff"
     bordercolor="#999999"
     borderopacity="1"
     inkscape:pageshadow="0"
     inkscape:pageopacity="0"
     inkscape:pagecheckerboard="0"
     showgrid="false"
     inkscape:zoom="21.476215"
     inkscape:cx="9.8713854"
     inkscape:cy="9.9645117"
     inkscape:window-width="1366"
     inkscape:window-height="736"
     inkscape:window-x="1366"
     inkscape:window-y="32"
     inkscape:window-maximized="1"
     inkscape:current-layer="svg13" />
  <g
     id="Grupo_16532"
     data-name="Grupo 16532"
     transform="matrix(1.4658986,0,0,1.4658986,-1706.2381,-129.12953)">
    <path
       id="Trazado_78396"
       data-name="Trazado 78396"
       d="m 16.218,151.736 a 0.49,0.49 0 0 1 -0.334,-0.13 l -3.279,-3.032 a 0.477,0.477 0 0 1 -0.154,-0.351 V 141.6 a 0.478,0.478 0 0 1 0.157,-0.353 l 3.279,-2.984 a 0.492,0.492 0 0 1 0.661,0 l 3.279,2.984 a 0.478,0.478 0 0 1 0.157,0.353 v 6.627 a 0.477,0.477 0 0 1 -0.154,0.351 l -3.279,3.032 a 0.49,0.49 0 0 1 -0.333,0.126 z"
       transform="translate(1154.567,-50.004)"
       fill="#fefac8" />
    <g
       id="Grupo_16530"
       data-name="Grupo 16530"
       transform="translate(1167.018,88.089)">
      <path
         id="Trazado_78401"
         data-name="Trazado 78401"
         d="m 115.962,398.934 v 2.458 a 0.49,0.49 0 0 0 0.333,-0.13 l 3.279,-3.032 a 0.478,0.478 0 0 0 0.154,-0.351 l -1.95,-0.625 z"
         transform="translate(-112.195,-387.787)"
         fill="#efba50" />
      <path
         id="Trazado_78402"
         data-name="Trazado 78402"
         d="m 12.45,140.554 a 0.478,0.478 0 0 1 0.157,-0.353 l 3.279,-2.984 a 0.49,0.49 0 0 1 0.331,-0.128 v 2.443 l -1.817,1.653 z"
         transform="translate(-12.45,-137.089)"
         fill="#efba50" />
    </g>
    <path
       id="Trazado_78397"
       data-name="Trazado 78397"
       d="m 16.218,398.934 v 2.458 a 0.49,0.49 0 0 1 -0.334,-0.13 l -3.279,-3.032 a 0.477,0.477 0 0 1 -0.154,-0.351 l 1.95,-0.625 z"
       transform="translate(1154.567,-299.698)"
       fill="#f9d984" />
    <g
       id="Grupo_16531"
       data-name="Grupo 16531"
       transform="translate(1167.018,91.554)">
      <path
         id="Trazado_78404"
         data-name="Trazado 78404"
         d="m 14.4,238.3 v -5.37 l -1.95,-0.625 v 6.627 z"
         transform="translate(-12.45,-232.305)"
         fill="#e5ae36" />
      <path
         id="Trazado_78405"
         data-name="Trazado 78405"
         d="m 165.881,232.937 v 5.371 l 1.95,0.625 v -6.627 z"
         transform="translate(-160.298,-232.305)"
         fill="#e5ae36" />
    </g>
    <path
       id="Trazado_78398"
       data-name="Trazado 78398"
       d="m 13.178,147.482 v -6.641 a 0.479,0.479 0 0 1 0.157,-0.354 l 2.394,-2.178 v -0.939 a 0.491,0.491 0 0 0 -0.331,0.128 l -3.286,2.99 a 0.479,0.479 0 0 0 -0.157,0.354 v 6.641 a 0.478,0.478 0 0 0 0.154,0.351 l 3.286,3.038 a 0.491,0.491 0 0 0 0.334,0.13 v -0.952 l -2.4,-2.216 a 0.478,0.478 0 0 1 -0.151,-0.352 z"
       transform="translate(1155.045,-49.271)"
       opacity="0.1" />
    <path
       id="Trazado_78399"
       data-name="Trazado 78399"
       d="m 119.45,140.841 a 0.479,0.479 0 0 0 -0.157,-0.354 l -3.286,-2.99 a 0.491,0.491 0 0 0 -0.331,-0.128 v 2.448 l 1.82,1.657 z"
       transform="translate(1055.098,-49.27)"
       fill="#f9d984" />
  </g>
</svg>
